<svg width="187" height="32" viewBox="0 0 187 32" fill="none" xmlns="http://www.w3.org/2000/svg">
<path d="M66.2032 31.1692C65.6089 31.1692 64.9237 31.0784 64.1478 30.8968L61.6961 30.2281L62.3648 28.2222C63.7516 28.7175 64.9072 28.9651 65.8318 28.9651C66.3271 28.9651 66.7398 28.8496 67.07 28.6184C67.4002 28.3873 67.5653 28.0736 67.5653 27.6774C67.5653 27.2812 67.458 26.984 67.2433 26.7859C67.0287 26.5878 66.6325 26.4144 66.0546 26.2658L64.7174 25.9191C62.8683 25.4404 61.9438 24.3507 61.9438 22.6502C61.9438 21.6267 62.3317 20.7847 63.1077 20.1243C63.9002 19.4639 64.932 19.1337 66.2032 19.1337C66.715 19.1337 67.3176 19.2245 68.011 19.4061L70.4627 20.0748L69.7941 22.0807C68.4568 21.5854 67.4415 21.3377 66.7481 21.3377C66.2858 21.3377 65.8978 21.4616 65.5841 21.7092C65.2704 21.9403 65.1136 22.2458 65.1136 22.6255C65.1136 23.0217 65.2209 23.3189 65.4355 23.517C65.6502 23.7151 66.0464 23.8885 66.6242 24.037L67.9367 24.3837C68.9273 24.6479 69.6372 25.0524 70.0665 25.5972C70.4957 26.1255 70.7103 26.8106 70.7103 27.6526C70.7103 28.6597 70.3306 29.5017 69.5712 30.1786C68.8117 30.839 67.6891 31.1692 66.2032 31.1692ZM76.7946 31.1692C75.5564 31.1692 74.6814 30.8637 74.1696 30.2529C73.6743 29.642 73.4267 28.7092 73.4267 27.4545V21.5358H71.5941V19.3566H73.4267V16.4592L76.5717 15.8401V19.3566H79.2958V21.5358H76.5717V27.504C76.5717 28.4781 76.968 28.9651 77.7604 28.9651C78.2392 28.9651 78.751 28.8166 79.2958 28.5194L79.7911 30.3767C78.8831 30.905 77.8843 31.1692 76.7946 31.1692ZM84.5056 31.1692C83.383 31.1692 82.4914 30.8225 81.8311 30.1291C81.1707 29.4357 80.8405 28.6102 80.8405 27.6526C80.8405 26.9427 81.0716 26.3731 81.5339 25.9439C82.0127 25.4981 82.7556 25.1514 83.7627 24.9038L87.7497 23.9132V22.8979C87.7497 22.4191 87.6012 22.0394 87.304 21.7587C87.0233 21.4781 86.6271 21.3377 86.1153 21.3377C85.5375 21.3377 84.2332 21.7752 82.2025 22.6502L81.3358 20.6443L84.1589 19.6042C85.0174 19.2905 85.6448 19.1337 86.041 19.1337C87.5434 19.1337 88.7238 19.5299 89.5823 20.3224C90.4573 21.0983 90.8948 22.1219 90.8948 23.3932V27.6526C90.8948 27.9663 90.9443 28.4368 91.0434 29.0642C91.159 29.6751 91.3075 30.1951 91.4892 30.6244L88.7898 31.1692C88.4597 30.806 88.113 30.3024 87.7497 29.6585C86.6436 30.6656 85.5622 31.1692 84.5056 31.1692ZM85.62 28.9651C86.2639 28.9651 86.9738 28.5937 87.7497 27.8507V25.3496L85.2733 26.0677C84.4809 26.2989 84.0846 26.7364 84.0846 27.3802C84.0846 27.8755 84.225 28.2635 84.5056 28.5442C84.7863 28.8248 85.1577 28.9651 85.62 28.9651ZM97.4361 31.1692C96.1979 31.1692 95.3228 30.8637 94.8111 30.2529C94.3158 29.642 94.0681 28.7092 94.0681 27.4545V21.5358H92.2356V19.3566H94.0681V16.4592L97.2132 15.8401V19.3566H99.9373V21.5358H97.2132V27.504C97.2132 28.4781 97.6094 28.9651 98.4019 28.9651C98.8807 28.9651 99.3925 28.8166 99.9373 28.5194L100.433 30.3767C99.5245 30.905 98.5257 31.1692 97.4361 31.1692ZM132.412 30.9463H129.267V24.1856C129.267 23.1951 129.119 22.4769 128.822 22.0311C128.541 21.5689 128.087 21.3377 127.46 21.3377C126.832 21.3377 126.155 21.7092 125.429 22.4521V30.9463H122.284V24.1856C122.284 23.1951 122.143 22.4769 121.863 22.0311C121.582 21.5689 121.12 21.3377 120.476 21.3377C119.865 21.3377 119.188 21.7092 118.445 22.4521V30.9463H115.3V22.6502C115.3 22.3366 115.242 21.8743 115.127 21.2634C115.028 20.6361 114.887 20.1078 114.706 19.6785L117.38 19.1337C117.727 19.4804 118.082 19.984 118.445 20.6443C119.485 19.6372 120.567 19.1337 121.689 19.1337C123.357 19.1337 124.488 19.7198 125.082 20.892C125.445 20.4132 125.965 20.0005 126.642 19.6538C127.319 19.3071 127.996 19.1337 128.673 19.1337C129.928 19.1337 130.86 19.4969 131.471 20.2233C132.099 20.9498 132.412 22.0807 132.412 23.6161V30.9463ZM138.122 31.1692C137 31.1692 136.108 30.8225 135.448 30.1291C134.787 29.4357 134.457 28.6102 134.457 27.6526C134.457 26.9427 134.688 26.3731 135.151 25.9439C135.629 25.4981 136.372 25.1514 137.379 24.9038L141.366 23.9132V22.8979C141.366 22.4191 141.218 22.0394 140.921 21.7587C140.64 21.4781 140.244 21.3377 139.732 21.3377C139.154 21.3377 137.85 21.7752 135.819 22.6502L134.952 20.6443L137.776 19.6042C138.634 19.2905 139.261 19.1337 139.658 19.1337C141.16 19.1337 142.34 19.5299 143.199 20.3224C144.074 21.0983 144.511 22.1219 144.511 23.3932V27.6526C144.511 27.9663 144.561 28.4368 144.66 29.0642C144.776 29.6751 144.924 30.1951 145.106 30.6244L142.407 31.1692C142.076 30.806 141.73 30.3024 141.366 29.6585C140.26 30.6656 139.179 31.1692 138.122 31.1692ZM139.237 28.9651C139.881 28.9651 140.59 28.5937 141.366 27.8507V25.3496L138.89 26.0677C138.098 26.2989 137.701 26.7364 137.701 27.3802C137.701 27.8755 137.842 28.2635 138.122 28.5442C138.403 28.8248 138.774 28.9651 139.237 28.9651ZM150.477 30.9463H147.332V22.6502C147.332 22.3366 147.275 21.8743 147.159 21.2634C147.06 20.6361 146.92 20.1078 146.738 19.6785L149.413 19.1337C149.924 19.6455 150.279 20.3389 150.477 21.2139C150.808 20.5535 151.245 20.0417 151.79 19.6785C152.351 19.3153 152.954 19.1337 153.598 19.1337C153.961 19.1337 154.291 19.1915 154.588 19.3071L154.043 22.0064H153.226C152.45 22.0064 151.839 22.1962 151.394 22.5759C150.964 22.9392 150.659 23.55 150.477 24.4085V30.9463ZM166.831 30.9463H162.968L159.129 24.9533V30.9463H155.984V14.4037L159.129 13.7846V24.0866L163.042 19.3566H166.583L161.928 24.5323L166.831 30.9463ZM172.468 31.1692C170.603 31.1692 169.191 30.6161 168.234 29.51C167.293 28.3873 166.822 26.918 166.822 25.1019C166.822 23.2859 167.309 21.8413 168.283 20.7682C169.257 19.6785 170.611 19.1337 172.344 19.1337C175.696 19.1337 177.372 20.8755 177.372 24.359C177.372 24.7222 177.33 25.0276 177.248 25.2753H170.066C170.066 26.5135 170.289 27.438 170.735 28.0489C171.197 28.6597 171.833 28.9651 172.642 28.9651C173.55 28.9651 174.738 28.635 176.208 27.9746L177.074 29.9805L174.449 30.9463C174.004 31.0949 173.343 31.1692 172.468 31.1692ZM172.171 21.3377C171.511 21.3377 170.991 21.5689 170.611 22.0311C170.248 22.4934 170.066 23.0712 170.066 23.7646H174.103C174.103 22.1467 173.459 21.3377 172.171 21.3377ZM183.539 31.1692C182.3 31.1692 181.425 30.8637 180.913 30.2529C180.418 29.642 180.171 28.7092 180.171 27.4545V21.5358H178.338V19.3566H180.171V16.4592L183.316 15.8401V19.3566H186.04V21.5358H183.316V27.504C183.316 28.4781 183.712 28.9651 184.504 28.9651C184.983 28.9651 185.495 28.8166 186.04 28.5194L186.535 30.3767C185.627 30.905 184.628 31.1692 183.539 31.1692Z" fill="#54618E"/>
<path d="M111.71 30.9463H108.713V27.1326H101.952L101.284 25.201L108.342 15.0971H111.71V24.8047H113.295V27.1326H111.71V30.9463ZM108.713 24.8047V18.366L104.33 24.8047H108.713Z" fill="#D653D2"/>
<mask id="mask0_2_535" style="mask-type:alpha" maskUnits="userSpaceOnUse" x="0" y="0" width="47" height="23">
<ellipse cx="23.5" cy="11.4836" rx="23.5" ry="11.049" fill="url(#paint0_linear_2_535)"/>
</mask>
<g mask="url(#mask0_2_535)">
<ellipse cx="23.5" cy="11.4836" rx="23.5" ry="11.049" fill="url(#paint1_linear_2_535)"/>
<path d="M30.973 14.5496V2.26862C30.973 2.08078 30.9848 1.87638 31.0082 1.65539C31.0553 1.43441 31.1023 1.20791 31.1493 0.975878L9.57625 14.5496H30.973ZM50.9423 14.5496V15.4115C50.9423 15.533 50.86 15.6324 50.6955 15.7098C50.5545 15.7761 50.3195 15.8092 49.9905 15.8092H33.934V22.5381H30.973V15.8092H7.39075C7.03825 15.8092 6.768 15.7761 6.58 15.7098C6.392 15.6324 6.26275 15.533 6.19225 15.4115L5.875 14.6325L30.9377 -0.946655H33.934V14.5496H50.9423Z" fill="white"/>
</g>
<defs>
<linearGradient id="paint0_linear_2_535" x1="54.05" y1="-6.19486" x2="42.2886" y2="31.5091" gradientUnits="userSpaceOnUse">
<stop stop-color="#FF00AA"/>
<stop offset="1" stop-color="#8912DE"/>
</linearGradient>
<linearGradient id="paint1_linear_2_535" x1="54.05" y1="-6.19486" x2="42.2886" y2="31.5091" gradientUnits="userSpaceOnUse">
<stop stop-color="#FF00AA"/>
<stop offset="1" stop-color="#8912DE"/>
</linearGradient>
</defs>
</svg>
